<svg width="32" height="32" viewBox="0 0 32 32" fill="none" xmlns="http://www.w3.org/2000/svg">
  <!-- Background -->
  <rect width="32" height="32" fill="#20B2AA"/>
  
  <!-- Simple airplane icon -->
  <path d="M16 6L24 12L20 14L16 11L12 14L8 12L16 6Z" fill="white"/>
  <path d="M16 11L20 14L18 18L16 16L14 18L12 14L16 11Z" fill="white"/>
  <path d="M14 18L18 18L17 22L15 22L14 18Z" fill="white"/>
  
  <!-- Wing details -->
  <path d="M8 12L12 14L10 16L6 14L8 12Z" fill="white"/>
  <path d="M20 14L24 12L26 14L22 16L20 14Z" fill="white"/>
</svg>